#N canvas 514 448 543 459 12;
#X floatatom 29 131 5 0 0 0 - - - 0;
#X floatatom 97 89 5 0 0 0 - - - 0;
#X floatatom 155 124 5 0 0 0 - - - 0;
#X text 67 132 freq;
#X text 137 89 ratio;
#X text 197 127 modulation index;
#N canvas 43 556 450 372 FM_synth1 1;
#X obj 123 257 osc~;
#X obj 127 109 *~;
#X text 107 14 freq;
#X text 186 44 ratio;
#X obj 242 149 *~;
#X text 279 89 modulation index;
#X obj 63 14 inlet;
#X obj 146 42 inlet;
#X obj 238 92 inlet;
#X obj 121 313 outlet~;
#X obj 172 165 osc~ 40;
#X obj 77 45 mtof;
#X obj 181 202 *~;
#X obj 126 228 +~;
#N canvas 1090 428 450 300 env 1;
#X obj 66 239 outlet~;
#X obj 64 157 line~;
#X msg 63 114 1 5;
#X obj 110 111 pack 0 500;
#X obj 181 43 inlet;
#X floatatom 182 79 5 0 0 0 - - - 0;
#X obj 51 18 inlet;
#X obj 55 48 bng 19 250 50 0 empty empty empty 0 -10 0 12 #fcfcfc #000000 #000000;
#X obj 93 73 del 100;
#X obj 74 201 *~;
#X connect 1 0 9 0;
#X connect 1 0 9 1;
#X connect 2 0 1 0;
#X connect 3 0 1 0;
#X connect 4 0 5 0;
#X connect 5 0 3 1;
#X connect 6 0 7 0;
#X connect 7 0 8 0;
#X connect 7 0 2 0;
#X connect 8 0 3 0;
#X connect 9 0 0 0;
#X restore 279 214 pd env;
#X obj 364 155 inlet;
#X obj 100 77 t f b;
#X obj 126 285 *~;
#X connect 0 0 17 0;
#X connect 1 0 4 0;
#X connect 1 0 10 0;
#X connect 4 0 12 1;
#X connect 6 0 11 0;
#X connect 7 0 1 1;
#X connect 8 0 4 1;
#X connect 10 0 12 0;
#X connect 11 0 16 0;
#X connect 12 0 13 1;
#X connect 13 0 0 0;
#X connect 14 0 17 1;
#X connect 15 0 14 1;
#X connect 16 0 1 0;
#X connect 16 0 13 0;
#X connect 16 1 14 0;
#X connect 17 0 9 0;
#X restore 74 193 pd FM_synth1;
#N canvas 83 210 647 300 sequence 1;
#X obj 85 15 inlet;
#X obj 70 256 outlet;
#X obj 302 87 table notes_list;
#X obj 82 65 metro 360;
#X obj 81 97 f 0;
#X obj 79 128 + 1;
#X obj 77 158 % 12;
#X obj 72 204 tabread notes_list;
#X floatatom 71 229 5 0 0 0 - - - 0;
#X floatatom 72 182 5 0 0 0 - - - 0;
#X obj 161 39 t b;
#X msg 266 125 \; notes_list 0 60 63 65 66 65 63 60 72 58 62 60 55;
#X connect 0 0 10 0;
#X connect 0 0 3 0;
#X connect 3 0 4 0;
#X connect 4 0 5 0;
#X connect 5 0 6 0;
#X connect 6 0 4 1;
#X connect 6 0 9 0;
#X connect 7 0 8 0;
#X connect 8 0 1 0;
#X connect 9 0 7 0;
#X connect 10 0 11 0;
#X restore 305 232 pd sequence;
#X obj 307 202 tgl 19 0 empty empty empty 0 -10 0 12 #fcfcfc #000000 #000000 0 1;
#X floatatom 304 266 5 0 0 0 - - - 0;
#X obj 308 301 s notes;
#X obj 26 99 r notes;
#X floatatom 194 162 5 0 0 0 - - - 0;
#X text 237 162 delay;
#X obj 71 278 *~;
#X floatatom 127 228 5 0 0 0 - - - 0;
#X text 172 229 master volume;
#X obj 127 253 / 100;
#X obj 74 318 dac~;
#X connect 0 0 6 0;
#X connect 1 0 6 1;
#X connect 2 0 6 2;
#X connect 6 0 14 0;
#X connect 7 0 9 0;
#X connect 8 0 7 0;
#X connect 9 0 10 0;
#X connect 11 0 0 0;
#X connect 12 0 6 3;
#X connect 14 0 18 0;
#X connect 14 0 18 1;
#X connect 15 0 17 0;
#X connect 17 0 14 1;
