#N canvas 731 125 450 300 12;
#X obj 63 138 phasor~;
#X obj 64 185 tabread4~ waveshape;
#X obj 64 209 +~;
#X obj 64 161 *~ 512;
#X obj 63 56 inlet;
#X obj 62 264 outlet~;
#X obj 63 115 mtof;
#X obj 63 237 *~;
#X floatatom 116 88 5 0 0 0 - - - 0;
#X obj 206 75 adsr1;
#X obj 257 190 outlet~;
#X connect 0 0 3 0;
#X connect 1 0 2 0;
#X connect 2 0 7 0;
#X connect 3 0 1 0;
#X connect 4 0 6 0;
#X connect 4 0 8 0;
#X connect 6 0 0 0;
#X connect 6 0 9 0;
#X connect 7 0 5 0;
#X connect 9 0 7 1;
#X connect 9 0 10 0;
