#N canvas 314 143 1306 692 12;
#X obj 524 74 r sq1;
#X obj 537 157 spigot;
#X obj 106 302 tgl 19 0 empty empty empty 0 -10 0 12 #bbbbbb #000000 #000000 0 1;
#X obj 596 157 spigot;
#X obj 130 302 tgl 19 0 empty empty empty 0 -10 0 12 #bbbbbb #000000 #000000 0 1;
#X obj 651 158 spigot;
#X obj 154 302 tgl 19 0 empty empty empty 0 -10 0 12 #bbbbbb #000000 #000000 0 1;
#X obj 705 158 spigot;
#X obj 179 302 tgl 19 0 empty empty empty 0 -10 0 12 #bbbbbb #000000 #000000 0 1;
#X obj 759 158 spigot;
#X obj 203 302 tgl 19 0 empty empty empty 0 -10 0 12 #bbbbbb #000000 #000000 0 1;
#X obj 819 157 spigot;
#X obj 227 302 tgl 19 0 empty empty empty 0 -10 0 12 #bbbbbb #000000 #000000 0 1;
#X obj 874 157 spigot;
#X obj 251 302 tgl 19 0 empty empty empty 0 -10 0 12 #bbbbbb #000000 #000000 0 1;
#X obj 935 157 spigot;
#X obj 275 302 tgl 19 0 empty empty empty 0 -10 0 12 #bbbbbb #000000 #000000 0 1;
#X obj 583 74 r sq2;
#X obj 638 75 r sq3;
#X obj 692 75 r sq4;
#X obj 747 75 r sq5;
#X obj 806 74 r sq6;
#X obj 861 74 r sq7;
#X obj 922 74 r sq8;
#X floatatom 297 303 4 0 0 0 - - - 0;
#X msg 1081 68 \$1;
#X obj 995 42 r notes;
#X msg 1081 133 \$2;
#X obj 524 98 bng 19 250 50 0 empty empty empty 0 -10 0 12 #fcfcfc #000000 #000000;
#X obj 583 98 bng 19 250 50 0 empty empty empty 0 -10 0 12 #fcfcfc #000000 #000000;
#X obj 638 99 bng 19 250 50 0 empty empty empty 0 -10 0 12 #fcfcfc #000000 #000000;
#X obj 692 99 bng 19 250 50 0 empty empty empty 0 -10 0 12 #fcfcfc #000000 #000000;
#X obj 747 99 bng 19 250 50 0 empty empty empty 0 -10 0 12 #fcfcfc #000000 #000000;
#X obj 806 98 bng 19 250 50 0 empty empty empty 0 -10 0 12 #fcfcfc #000000 #000000;
#X obj 861 98 bng 19 250 50 0 empty empty empty 0 -10 0 12 #fcfcfc #000000 #000000;
#X obj 922 98 bng 19 250 50 0 empty empty empty 0 -10 0 12 #fcfcfc #000000 #000000;
#X obj 998 130 pack b f;
#X obj 998 154 unpack b f;
#X obj 996 181 s seqSend;
#X obj 537 236 spigot;
#X obj 106 276 tgl 19 0 empty empty empty 0 -10 0 12 #bbbbbb #000000 #000000 0 1;
#X obj 596 236 spigot;
#X obj 130 276 tgl 19 0 empty empty empty 0 -10 0 12 #bbbbbb #000000 #000000 0 1;
#X obj 651 237 spigot;
#X obj 154 276 tgl 19 0 empty empty empty 0 -10 0 12 #bbbbbb #000000 #000000 0 1;
#X obj 705 237 spigot;
#X obj 179 276 tgl 19 0 empty empty empty 0 -10 0 12 #bbbbbb #000000 #000000 0 1;
#X obj 759 237 spigot;
#X obj 203 276 tgl 19 0 empty empty empty 0 -10 0 12 #bbbbbb #000000 #000000 0 1;
#X obj 819 236 spigot;
#X obj 227 276 tgl 19 0 empty empty empty 0 -10 0 12 #bbbbbb #000000 #000000 0 1;
#X obj 874 236 spigot;
#X obj 251 276 tgl 19 0 empty empty empty 0 -10 0 12 #bbbbbb #000000 #000000 0 1;
#X obj 935 236 spigot;
#X obj 275 276 tgl 19 0 empty empty empty 0 -10 0 12 #bbbbbb #000000 #000000 0 1;
#X obj 995 208 pack b f;
#X obj 997 232 unpack b f;
#X obj 997 260 s seqSend;
#X obj 539 313 spigot;
#X obj 106 250 tgl 19 0 empty empty empty 0 -10 0 12 #bbbbbb #000000 #000000 0 1;
#X obj 598 313 spigot;
#X obj 130 251 tgl 19 0 empty empty empty 0 -10 0 12 #bbbbbb #000000 #000000 0 1;
#X obj 653 314 spigot;
#X obj 154 251 tgl 19 0 empty empty empty 0 -10 0 12 #bbbbbb #000000 #000000 0 1;
#X obj 707 314 spigot;
#X obj 179 251 tgl 19 0 empty empty empty 0 -10 0 12 #bbbbbb #000000 #000000 0 1;
#X obj 761 314 spigot;
#X obj 203 251 tgl 19 0 empty empty empty 0 -10 0 12 #bbbbbb #000000 #000000 0 1;
#X obj 821 313 spigot;
#X obj 227 251 tgl 19 0 empty empty empty 0 -10 0 12 #bbbbbb #000000 #000000 0 1;
#X obj 876 313 spigot;
#X obj 251 251 tgl 19 0 empty empty empty 0 -10 0 12 #bbbbbb #000000 #000000 0 1;
#X obj 937 313 spigot;
#X obj 275 251 tgl 19 0 empty empty empty 0 -10 0 12 #bbbbbb #000000 #000000 0 1;
#X obj 997 285 pack b f;
#X obj 999 309 unpack b f;
#X obj 999 337 s seqSend;
#X obj 540 394 spigot;
#X obj 106 225 tgl 19 0 empty empty empty 0 -10 0 12 #bbbbbb #000000 #000000 0 1;
#X obj 599 394 spigot;
#X obj 130 226 tgl 19 0 empty empty empty 0 -10 0 12 #bbbbbb #000000 #000000 0 1;
#X obj 654 395 spigot;
#X obj 154 226 tgl 19 0 empty empty empty 0 -10 0 12 #bbbbbb #000000 #000000 0 1;
#X obj 708 395 spigot;
#X obj 179 226 tgl 19 0 empty empty empty 0 -10 0 12 #bbbbbb #000000 #000000 0 1;
#X obj 762 395 spigot;
#X obj 203 226 tgl 19 0 empty empty empty 0 -10 0 12 #bbbbbb #000000 #000000 0 1;
#X obj 822 394 spigot;
#X obj 227 226 tgl 19 0 empty empty empty 0 -10 0 12 #bbbbbb #000000 #000000 0 1;
#X obj 877 394 spigot;
#X obj 250 226 tgl 19 0 empty empty empty 0 -10 0 12 #bbbbbb #000000 #000000 0 1;
#X obj 938 394 spigot;
#X obj 274 226 tgl 19 0 empty empty empty 0 -10 0 12 #bbbbbb #000000 #000000 0 1;
#X obj 998 366 pack b f;
#X obj 1000 390 unpack b f;
#X obj 1000 418 s seqSend;
#X obj 542 470 spigot;
#X obj 106 201 tgl 19 0 empty empty empty 0 -10 0 12 #bbbbbb #000000 #000000 0 1;
#X obj 601 470 spigot;
#X obj 130 201 tgl 19 0 empty empty empty 0 -10 0 12 #bbbbbb #000000 #000000 0 1;
#X obj 656 471 spigot;
#X obj 154 201 tgl 19 0 empty empty empty 0 -10 0 12 #bbbbbb #000000 #000000 0 1;
#X obj 710 471 spigot;
#X obj 179 201 tgl 19 0 empty empty empty 0 -10 0 12 #bbbbbb #000000 #000000 0 1;
#X obj 764 471 spigot;
#X obj 203 201 tgl 19 0 empty empty empty 0 -10 0 12 #bbbbbb #000000 #000000 0 1;
#X obj 824 470 spigot;
#X obj 227 201 tgl 19 0 empty empty empty 0 -10 0 12 #bbbbbb #000000 #000000 0 1;
#X obj 879 470 spigot;
#X obj 250 201 tgl 19 0 empty empty empty 0 -10 0 12 #bbbbbb #000000 #000000 0 1;
#X obj 940 470 spigot;
#X obj 274 201 tgl 19 0 empty empty empty 0 -10 0 12 #bbbbbb #000000 #000000 0 1;
#X obj 1000 442 pack b f;
#X obj 1002 466 unpack b f;
#X obj 1002 494 s seqSend;
#X obj 543 544 spigot;
#X obj 106 177 tgl 19 0 empty empty empty 0 -10 0 12 #bbbbbb #000000 #000000 0 1;
#X obj 602 544 spigot;
#X obj 130 177 tgl 19 0 empty empty empty 0 -10 0 12 #bbbbbb #000000 #000000 0 1;
#X obj 657 545 spigot;
#X obj 154 177 tgl 19 0 empty empty empty 0 -10 0 12 #bbbbbb #000000 #000000 0 1;
#X obj 711 545 spigot;
#X obj 179 177 tgl 19 0 empty empty empty 0 -10 0 12 #bbbbbb #000000 #000000 0 1;
#X obj 765 545 spigot;
#X obj 203 177 tgl 19 0 empty empty empty 0 -10 0 12 #bbbbbb #000000 #000000 0 1;
#X obj 825 544 spigot;
#X obj 227 177 tgl 19 0 empty empty empty 0 -10 0 12 #bbbbbb #000000 #000000 0 1;
#X obj 880 544 spigot;
#X obj 250 177 tgl 19 0 empty empty empty 0 -10 0 12 #bbbbbb #000000 #000000 0 1;
#X obj 941 544 spigot;
#X obj 274 177 tgl 19 0 empty empty empty 0 -10 0 12 #bbbbbb #000000 #000000 0 1;
#X obj 1001 516 pack b f;
#X obj 1003 540 unpack b f;
#X obj 1003 568 s seqSend;
#X obj 547 620 spigot;
#X obj 106 153 tgl 19 0 empty empty empty 0 -10 0 12 #bbbbbb #000000 #000000 0 1;
#X obj 606 620 spigot;
#X obj 130 153 tgl 19 0 empty empty empty 0 -10 0 12 #bbbbbb #000000 #000000 0 1;
#X obj 661 621 spigot;
#X obj 154 153 tgl 19 0 empty empty empty 0 -10 0 12 #bbbbbb #000000 #000000 0 1;
#X obj 715 621 spigot;
#X obj 179 153 tgl 19 0 empty empty empty 0 -10 0 12 #bbbbbb #000000 #000000 0 1;
#X obj 769 621 spigot;
#X obj 203 153 tgl 19 0 empty empty empty 0 -10 0 12 #bbbbbb #000000 #000000 0 1;
#X obj 829 620 spigot;
#X obj 227 153 tgl 19 0 empty empty empty 0 -10 0 12 #bbbbbb #000000 #000000 0 1;
#X obj 884 620 spigot;
#X obj 250 153 tgl 19 0 empty empty empty 0 -10 0 12 #bbbbbb #000000 #000000 0 1;
#X obj 945 620 spigot;
#X obj 274 153 tgl 19 0 empty empty empty 0 -10 0 12 #bbbbbb #000000 #000000 0 1;
#X obj 1005 592 pack b f;
#X obj 1007 616 unpack b f;
#X obj 1007 644 s seqSend;
#X obj 548 700 spigot;
#X obj 106 129 tgl 19 0 empty empty empty 0 -10 0 12 #bbbbbb #000000 #000000 0 1;
#X obj 607 700 spigot;
#X obj 130 129 tgl 19 0 empty empty empty 0 -10 0 12 #bbbbbb #000000 #000000 0 1;
#X obj 662 701 spigot;
#X obj 154 129 tgl 19 0 empty empty empty 0 -10 0 12 #bbbbbb #000000 #000000 0 1;
#X obj 716 701 spigot;
#X obj 179 129 tgl 19 0 empty empty empty 0 -10 0 12 #bbbbbb #000000 #000000 0 1;
#X obj 770 701 spigot;
#X obj 203 129 tgl 19 0 empty empty empty 0 -10 0 12 #bbbbbb #000000 #000000 0 1;
#X obj 830 700 spigot;
#X obj 227 129 tgl 19 0 empty empty empty 0 -10 0 12 #bbbbbb #000000 #000000 0 1;
#X obj 885 700 spigot;
#X obj 250 129 tgl 19 0 empty empty empty 0 -10 0 12 #bbbbbb #000000 #000000 0 1;
#X obj 946 700 spigot;
#X obj 274 129 tgl 19 0 empty empty empty 0 -10 0 12 #bbbbbb #000000 #000000 0 1;
#X obj 1006 672 pack b f;
#X obj 1008 696 unpack b f;
#X obj 1008 724 s seqSend;
#X msg 1082 204 \$3;
#X msg 1084 289 \$4;
#X msg 1087 362 \$5;
#X msg 1088 437 \$6;
#X msg 1093 512 \$7;
#X msg 1095 594 \$8;
#X obj 1146 56 r modeMod;
#X obj 1087 237 +;
#X obj 1084 325 +;
#X obj 1090 396 +;
#X obj 1090 466 +;
#X obj 1094 547 +;
#X obj 1095 620 +;
#X msg 1128 205 \$2;
#X msg 1129 289 \$3;
#X msg 1134 363 \$4;
#X msg 1138 435 \$5;
#X msg 1140 513 \$6;
#X msg 1143 595 \$7;
#X obj 1085 166 +;
#X msg 1127 133 \$1;
#X floatatom 297 277 4 0 0 0 - - - 0;
#X floatatom 298 252 4 0 0 0 - - - 0;
#X floatatom 297 227 4 0 0 0 - - - 0;
#X floatatom 298 202 4 0 0 0 - - - 0;
#X floatatom 298 178 4 0 0 0 - - - 0;
#X floatatom 298 154 4 0 0 0 - - - 0;
#X floatatom 297 130 4 0 0 0 - - - 0;
#X obj 340 121 vradio 19 1 0 12 empty empty Key 0 -8 0 10 #ffe3c6 #000000 #000000 0;
#X obj 1369 383 s notes;
#X obj 1247 -57 loadbang;
#X msg 1282 -22 60 62 64 65 67 69 71 72;
#X msg 1279 47 62 64 66 67 69 71 73 74;
#X msg 1280 13 61 63 65 66 68 70 72 73;
#X msg 1278 84 63 65 67 68 70 72 74 75;
#X msg 1277 120 64 66 68 69 71 73 75 76;
#X msg 1279 155 65 67 69 70 72 74 76 77;
#X msg 1281 186 66 68 70 71 73 75 77 78;
#X msg 1283 219 67 69 71 72 74 76 78 79;
#X msg 1282 254 56 58 60 61 63 65 67 68;
#X msg 1284 284 57 59 61 62 64 66 68 69;
#X msg 1283 313 58 60 62 63 65 67 69 70;
#X msg 1282 347 59 61 63 64 66 68 70 71;
#X obj 1333 -60 sel 0 1 2 3 4 5 6 7 8 9 10 11;
#X text 365 138 C#;
#X text 363 197 E;
#X text 362 218 F;
#X text 363 234 F#;
#X text 364 255 G;
#X text 362 273 Ab;
#X text 363 293 A;
#X text 363 311 B;
#X text 361 329 Bb;
#X text 364 178 Eb;
#X text 366 157 D;
#X text 367 121 C;
#X obj 395 122 vradio 19 1 0 8 empty empty Mode 0 -8 0 10 #c7c6ff #000000 #000000 0;
#X text 418 124 Ionian;
#X text 419 141 Dorian;
#X text 419 161 Phrygian;
#X text 418 180 Lydian;
#X text 418 197 Mixolydian;
#X text 419 216 Aeolian;
#X text 418 235 Locrian;
#X obj 1527 269 s modeMod;
#X msg 1481 3 0 0 0 0 0 0 0;
#X msg 1481 31 0 -1 0 0 0 -1 0;
#X msg 1482 57 -1 -1 0 0 -1 -1 0;
#X msg 1483 86 0 0 1 0 0 0 0;
#X msg 1484 117 0 0 0 0 0 -1 0;
#X msg 1482 149 0 -1 0 0 -1 -1 0;
#X msg 1483 181 -1 -1 0 -1 -1 -1 0;
#X obj 609 35 bng 19 250 50 0 empty empty empty 0 -10 0 12 #fcfcfc #000000 #000000;
#X msg 1484 216 0 0 1 0 0 -1 0;
#X obj 1430 -167 sel 0 1 2 3 4 5 6 7;
#X text 418 257 Lydian b7;
#X obj 341 42 loadbang;
#X listbox 1108 26 20 0 0 0 - - - 0;
#X floatatom 1127 157 5 0 0 0 - - - 0;
#X floatatom 1128 229 5 0 0 0 - - - 0;
#X floatatom 1129 313 5 0 0 0 - - - 0;
#X floatatom 1134 387 5 0 0 0 - - - 0;
#X floatatom 1138 459 5 0 0 0 - - - 0;
#X floatatom 1140 537 5 0 0 0 - - - 0;
#X floatatom 1143 619 5 0 0 0 - - - 0;
#X obj 107 341 hradio 19 1 0 4 empty empty Pattern 0 -8 0 10 #c6ffc7 #000000 #000000 0;
#X obj 53 19 unpack f f f f f f f f f f f f f f f f f f f f f f f f f f f f f f f f f f f f f f f f f f f f f f f f f f f f f f f f f f f f f f f f, f 134;
#X msg 28 -124 0 0 0 0 0 0 0 0 0 0 0 0 0 1 0 0 0 0 1 0 0 0 0 1 1 0 0 0 0 0 0 0 0 0 1 0 0 0 1 0 0 0 0 0 1 0 0 0 0 0 0 0 0 0 1 0 1 0 0 0 1 0 0 0;
#X obj 32 -156 sel 0 1 2 3 4 5;
#X msg 478 -53 0 0 0 0 0 0 1 0 0 1 0 0 1 0 0 0 1 0 0 1 0 0 0 0 0 0 0 0 1 0 0 1 0 0 0 1 0 0 0 0 0 0 1 0 0 0 1 0 0 0 0 0 0 1 0 0 1 0 0 0 0 0 0 0;
#X obj 255 438 s oscKey;
#X obj 368 483 s oscMode;
#X msg 26 -56 0 0 0 0 1 0 0 0 1 0 0 0 0 0 0 0 0 0 0 0 1 0 0 0 0 0 0 1 0 0 0 0 1 0 0 0 0 0 0 0 0 0 0 0 1 0 0 1 0 0 0 0 0 0 1 0 1 0 0 0 0 0 0 0;
#X msg 477 -123 0 0 0 0 0 0 0 0 0 0 0 0 1 0 0 0 0 0 1 0 0 0 0 1 1 0 0 0 1 0 0 0 0 1 0 1 0 0 1 0 0 0 1 0 1 0 0 0 0 0 0 0 0 0 1 0 1 0 0 0 0 0 0 0;
#X obj -553 551 pack f f f f f f f f f f f f f f f f f f f f f f f f f f f f f f f f f f f f f f f f f f f f f f f f f f f f f f f f f f f f f f f f, f 134;
#X obj 354 624 s oscPattern;
#X connect 0 0 28 0;
#X connect 1 0 36 0;
#X connect 2 0 1 1;
#X connect 2 0 266 56;
#X connect 3 0 36 0;
#X connect 4 0 3 1;
#X connect 4 0 266 57;
#X connect 5 0 36 0;
#X connect 6 0 5 1;
#X connect 6 0 266 58;
#X connect 7 0 36 0;
#X connect 8 0 7 1;
#X connect 8 0 266 59;
#X connect 9 0 36 0;
#X connect 10 0 9 1;
#X connect 10 0 266 60;
#X connect 11 0 36 0;
#X connect 12 0 11 1;
#X connect 12 0 266 61;
#X connect 13 0 36 0;
#X connect 14 0 13 1;
#X connect 14 0 266 62;
#X connect 15 0 36 0;
#X connect 16 0 15 1;
#X connect 16 0 266 63;
#X connect 17 0 29 0;
#X connect 18 0 30 0;
#X connect 19 0 31 0;
#X connect 20 0 32 0;
#X connect 21 0 33 0;
#X connect 22 0 34 0;
#X connect 23 0 35 0;
#X connect 24 0 36 1;
#X connect 25 0 24 0;
#X connect 26 0 25 0;
#X connect 26 0 27 0;
#X connect 26 0 172 0;
#X connect 26 0 173 0;
#X connect 26 0 174 0;
#X connect 26 0 175 0;
#X connect 26 0 176 0;
#X connect 26 0 177 0;
#X connect 27 0 191 0;
#X connect 28 0 1 0;
#X connect 28 0 39 0;
#X connect 28 0 58 0;
#X connect 28 0 77 0;
#X connect 28 0 96 0;
#X connect 28 0 115 0;
#X connect 28 0 134 0;
#X connect 28 0 153 0;
#X connect 29 0 3 0;
#X connect 29 0 41 0;
#X connect 29 0 60 0;
#X connect 29 0 79 0;
#X connect 29 0 98 0;
#X connect 29 0 117 0;
#X connect 29 0 136 0;
#X connect 29 0 155 0;
#X connect 30 0 5 0;
#X connect 30 0 43 0;
#X connect 30 0 62 0;
#X connect 30 0 81 0;
#X connect 30 0 100 0;
#X connect 30 0 119 0;
#X connect 30 0 138 0;
#X connect 30 0 157 0;
#X connect 31 0 7 0;
#X connect 31 0 45 0;
#X connect 31 0 64 0;
#X connect 31 0 83 0;
#X connect 31 0 102 0;
#X connect 31 0 121 0;
#X connect 31 0 140 0;
#X connect 31 0 159 0;
#X connect 32 0 9 0;
#X connect 32 0 47 0;
#X connect 32 0 66 0;
#X connect 32 0 85 0;
#X connect 32 0 104 0;
#X connect 32 0 123 0;
#X connect 32 0 142 0;
#X connect 32 0 161 0;
#X connect 33 0 11 0;
#X connect 33 0 49 0;
#X connect 33 0 68 0;
#X connect 33 0 87 0;
#X connect 33 0 106 0;
#X connect 33 0 125 0;
#X connect 33 0 144 0;
#X connect 33 0 163 0;
#X connect 34 0 13 0;
#X connect 34 0 51 0;
#X connect 34 0 70 0;
#X connect 34 0 89 0;
#X connect 34 0 108 0;
#X connect 34 0 127 0;
#X connect 34 0 146 0;
#X connect 34 0 165 0;
#X connect 35 0 15 0;
#X connect 35 0 53 0;
#X connect 35 0 72 0;
#X connect 35 0 91 0;
#X connect 35 0 110 0;
#X connect 35 0 129 0;
#X connect 35 0 148 0;
#X connect 35 0 167 0;
#X connect 36 0 37 0;
#X connect 37 1 38 0;
#X connect 39 0 55 0;
#X connect 40 0 39 1;
#X connect 40 0 266 48;
#X connect 41 0 55 0;
#X connect 42 0 41 1;
#X connect 42 0 266 49;
#X connect 43 0 55 0;
#X connect 44 0 43 1;
#X connect 44 0 266 50;
#X connect 45 0 55 0;
#X connect 46 0 45 1;
#X connect 46 0 266 51;
#X connect 47 0 55 0;
#X connect 48 0 47 1;
#X connect 48 0 266 52;
#X connect 49 0 55 0;
#X connect 50 0 49 1;
#X connect 50 0 266 53;
#X connect 51 0 55 0;
#X connect 52 0 51 1;
#X connect 52 0 266 54;
#X connect 53 0 55 0;
#X connect 54 0 53 1;
#X connect 54 0 266 55;
#X connect 55 0 56 0;
#X connect 56 1 57 0;
#X connect 58 0 74 0;
#X connect 59 0 58 1;
#X connect 59 0 266 40;
#X connect 60 0 74 0;
#X connect 61 0 60 1;
#X connect 61 0 266 41;
#X connect 62 0 74 0;
#X connect 63 0 62 1;
#X connect 63 0 266 42;
#X connect 64 0 74 0;
#X connect 65 0 64 1;
#X connect 65 0 266 43;
#X connect 66 0 74 0;
#X connect 67 0 66 1;
#X connect 67 0 266 44;
#X connect 68 0 74 0;
#X connect 69 0 68 1;
#X connect 69 0 266 45;
#X connect 70 0 74 0;
#X connect 71 0 70 1;
#X connect 71 0 266 46;
#X connect 72 0 74 0;
#X connect 73 0 72 1;
#X connect 73 0 266 47;
#X connect 74 0 75 0;
#X connect 75 1 76 0;
#X connect 77 0 93 0;
#X connect 78 0 77 1;
#X connect 78 0 266 32;
#X connect 79 0 93 0;
#X connect 80 0 79 1;
#X connect 80 0 266 33;
#X connect 81 0 93 0;
#X connect 82 0 81 1;
#X connect 82 0 266 34;
#X connect 83 0 93 0;
#X connect 84 0 83 1;
#X connect 84 0 266 35;
#X connect 85 0 93 0;
#X connect 86 0 85 1;
#X connect 86 0 266 36;
#X connect 87 0 93 0;
#X connect 88 0 87 1;
#X connect 88 0 266 37;
#X connect 89 0 93 0;
#X connect 90 0 89 1;
#X connect 90 0 266 38;
#X connect 91 0 93 0;
#X connect 92 0 91 1;
#X connect 92 0 266 39;
#X connect 93 0 94 0;
#X connect 94 1 95 0;
#X connect 96 0 112 0;
#X connect 97 0 96 1;
#X connect 97 0 266 24;
#X connect 98 0 112 0;
#X connect 99 0 98 1;
#X connect 99 0 266 25;
#X connect 100 0 112 0;
#X connect 101 0 100 1;
#X connect 101 0 266 26;
#X connect 102 0 112 0;
#X connect 103 0 102 1;
#X connect 103 0 266 27;
#X connect 104 0 112 0;
#X connect 105 0 104 1;
#X connect 105 0 266 28;
#X connect 106 0 112 0;
#X connect 107 0 106 1;
#X connect 107 0 266 29;
#X connect 108 0 112 0;
#X connect 109 0 108 1;
#X connect 109 0 266 30;
#X connect 110 0 112 0;
#X connect 111 0 110 1;
#X connect 111 0 266 31;
#X connect 112 0 113 0;
#X connect 113 1 114 0;
#X connect 115 0 131 0;
#X connect 116 0 115 1;
#X connect 116 0 266 16;
#X connect 117 0 131 0;
#X connect 118 0 117 1;
#X connect 118 0 266 17;
#X connect 119 0 131 0;
#X connect 120 0 119 1;
#X connect 120 0 266 18;
#X connect 121 0 131 0;
#X connect 122 0 121 1;
#X connect 122 0 266 19;
#X connect 123 0 131 0;
#X connect 124 0 123 1;
#X connect 124 0 266 20;
#X connect 125 0 131 0;
#X connect 126 0 125 1;
#X connect 126 0 266 21;
#X connect 127 0 131 0;
#X connect 128 0 127 1;
#X connect 128 0 266 22;
#X connect 129 0 131 0;
#X connect 130 0 129 1;
#X connect 130 0 266 23;
#X connect 131 0 132 0;
#X connect 132 1 133 0;
#X connect 134 0 150 0;
#X connect 135 0 134 1;
#X connect 135 0 266 8;
#X connect 136 0 150 0;
#X connect 137 0 136 1;
#X connect 137 0 266 9;
#X connect 138 0 150 0;
#X connect 139 0 138 1;
#X connect 139 0 266 10;
#X connect 140 0 150 0;
#X connect 141 0 140 1;
#X connect 141 0 266 11;
#X connect 142 0 150 0;
#X connect 143 0 142 1;
#X connect 143 0 266 12;
#X connect 144 0 150 0;
#X connect 145 0 144 1;
#X connect 145 0 266 13;
#X connect 146 0 150 0;
#X connect 147 0 146 1;
#X connect 147 0 266 14;
#X connect 148 0 150 0;
#X connect 149 0 148 1;
#X connect 149 0 266 15;
#X connect 150 0 151 0;
#X connect 151 1 152 0;
#X connect 153 0 169 0;
#X connect 154 0 153 1;
#X connect 154 0 266 0;
#X connect 155 0 169 0;
#X connect 156 0 155 1;
#X connect 156 0 266 1;
#X connect 157 0 169 0;
#X connect 158 0 157 1;
#X connect 158 0 266 2;
#X connect 159 0 169 0;
#X connect 160 0 159 1;
#X connect 160 0 266 3;
#X connect 161 0 169 0;
#X connect 162 0 161 1;
#X connect 162 0 266 4;
#X connect 163 0 169 0;
#X connect 164 0 163 1;
#X connect 164 0 266 5;
#X connect 165 0 169 0;
#X connect 166 0 165 1;
#X connect 166 0 266 6;
#X connect 167 0 169 0;
#X connect 168 0 167 1;
#X connect 168 0 266 7;
#X connect 169 0 170 0;
#X connect 170 1 171 0;
#X connect 172 0 179 0;
#X connect 173 0 180 0;
#X connect 174 0 181 0;
#X connect 175 0 182 0;
#X connect 176 0 183 0;
#X connect 177 0 184 0;
#X connect 178 0 185 0;
#X connect 178 0 186 0;
#X connect 178 0 187 0;
#X connect 178 0 188 0;
#X connect 178 0 189 0;
#X connect 178 0 190 0;
#X connect 178 0 192 0;
#X connect 178 0 249 0;
#X connect 179 0 74 1;
#X connect 179 0 194 0;
#X connect 180 0 93 1;
#X connect 180 0 195 0;
#X connect 181 0 112 1;
#X connect 181 0 196 0;
#X connect 182 0 131 1;
#X connect 182 0 197 0;
#X connect 183 0 150 1;
#X connect 183 0 198 0;
#X connect 184 0 169 1;
#X connect 184 0 199 0;
#X connect 185 0 179 1;
#X connect 185 0 251 0;
#X connect 186 0 180 1;
#X connect 186 0 252 0;
#X connect 187 0 181 1;
#X connect 187 0 253 0;
#X connect 188 0 182 1;
#X connect 188 0 254 0;
#X connect 189 0 183 1;
#X connect 189 0 255 0;
#X connect 190 0 184 1;
#X connect 190 0 256 0;
#X connect 191 0 55 1;
#X connect 191 0 193 0;
#X connect 192 0 191 1;
#X connect 192 0 250 0;
#X connect 200 0 215 0;
#X connect 200 0 262 0;
#X connect 202 0 203 0;
#X connect 202 0 237 0;
#X connect 203 0 201 0;
#X connect 204 0 201 0;
#X connect 205 0 201 0;
#X connect 206 0 201 0;
#X connect 207 0 201 0;
#X connect 208 0 201 0;
#X connect 209 0 201 0;
#X connect 210 0 201 0;
#X connect 211 0 201 0;
#X connect 212 0 201 0;
#X connect 213 0 201 0;
#X connect 214 0 201 0;
#X connect 215 0 203 0;
#X connect 215 1 205 0;
#X connect 215 2 204 0;
#X connect 215 3 206 0;
#X connect 215 4 207 0;
#X connect 215 5 208 0;
#X connect 215 6 209 0;
#X connect 215 7 210 0;
#X connect 215 8 211 0;
#X connect 215 9 212 0;
#X connect 215 10 213 0;
#X connect 215 11 214 0;
#X connect 228 0 244 0;
#X connect 228 0 246 0;
#X connect 228 0 263 0;
#X connect 237 0 236 0;
#X connect 238 0 236 0;
#X connect 239 0 236 0;
#X connect 240 0 236 0;
#X connect 241 0 236 0;
#X connect 242 0 236 0;
#X connect 243 0 236 0;
#X connect 244 0 200 0;
#X connect 245 0 236 0;
#X connect 246 0 237 0;
#X connect 246 0 244 0;
#X connect 246 1 238 0;
#X connect 246 1 244 0;
#X connect 246 2 239 0;
#X connect 246 2 244 0;
#X connect 246 3 240 0;
#X connect 246 3 244 0;
#X connect 246 4 241 0;
#X connect 246 4 244 0;
#X connect 246 5 242 0;
#X connect 246 5 244 0;
#X connect 246 6 243 0;
#X connect 246 6 244 0;
#X connect 246 7 245 0;
#X connect 246 7 244 0;
#X connect 248 0 200 0;
#X connect 248 0 228 0;
#X connect 248 0 257 0;
#X connect 257 0 260 0;
#X connect 258 0 154 0;
#X connect 258 1 156 0;
#X connect 258 2 158 0;
#X connect 258 3 160 0;
#X connect 258 4 162 0;
#X connect 258 5 164 0;
#X connect 258 6 166 0;
#X connect 258 7 168 0;
#X connect 258 8 135 0;
#X connect 258 9 137 0;
#X connect 258 10 139 0;
#X connect 258 11 141 0;
#X connect 258 12 143 0;
#X connect 258 13 145 0;
#X connect 258 14 147 0;
#X connect 258 15 149 0;
#X connect 258 16 116 0;
#X connect 258 17 118 0;
#X connect 258 18 120 0;
#X connect 258 19 122 0;
#X connect 258 20 124 0;
#X connect 258 21 126 0;
#X connect 258 22 128 0;
#X connect 258 23 130 0;
#X connect 258 24 97 0;
#X connect 258 25 99 0;
#X connect 258 26 101 0;
#X connect 258 27 103 0;
#X connect 258 28 105 0;
#X connect 258 29 107 0;
#X connect 258 30 109 0;
#X connect 258 31 111 0;
#X connect 258 32 78 0;
#X connect 258 33 80 0;
#X connect 258 34 82 0;
#X connect 258 35 84 0;
#X connect 258 36 86 0;
#X connect 258 37 88 0;
#X connect 258 38 90 0;
#X connect 258 39 92 0;
#X connect 258 40 59 0;
#X connect 258 41 61 0;
#X connect 258 42 63 0;
#X connect 258 43 65 0;
#X connect 258 44 67 0;
#X connect 258 45 69 0;
#X connect 258 46 71 0;
#X connect 258 47 73 0;
#X connect 258 48 40 0;
#X connect 258 49 42 0;
#X connect 258 50 44 0;
#X connect 258 51 46 0;
#X connect 258 52 48 0;
#X connect 258 53 50 0;
#X connect 258 54 52 0;
#X connect 258 55 54 0;
#X connect 258 56 2 0;
#X connect 258 57 4 0;
#X connect 258 58 6 0;
#X connect 258 59 8 0;
#X connect 258 60 10 0;
#X connect 258 61 12 0;
#X connect 258 62 14 0;
#X connect 258 63 16 0;
#X connect 259 0 258 0;
#X connect 260 0 259 0;
#X connect 260 1 264 0;
#X connect 260 2 265 0;
#X connect 260 3 261 0;
#X connect 261 0 258 0;
#X connect 264 0 258 0;
#X connect 265 0 258 0;
#X connect 266 0 267 0;
#X coords 0 -1 1 1 400 280 1 100 100;
