#N canvas 34 392 1375 569 12;
#X obj 437 339 tgl 19 0 empty empty empty 0 -10 0 12 #fcfcfc #000000 #000000 0 1;
#N canvas 1094 111 478 326 the_notes 0;
#X obj 88 37 inlet;
#X obj 77 255 outlet;
#X obj 245 91 table blah_fuckin;
#X obj 84 120 f 0;
#X obj 85 146 + 1;
#X obj 67 216 tabread blah_fuckin;
#X obj 167 71 t b;
#X obj 85 86 metro 100;
#X msg 229 173 \; blah_fuckin 0 58 60 58 62 65 64 62 60;
#X obj 84 174 % 8;
#X connect 0 0 6 0;
#X connect 0 0 7 0;
#X connect 3 0 4 0;
#X connect 4 0 9 0;
#X connect 5 0 1 0;
#X connect 6 0 8 0;
#X connect 7 0 3 0;
#X connect 9 0 3 1;
#X connect 9 0 5 0;
#X coords 0 0 1 1 85 60 0;
#X restore 423 380 pd the_notes;
#X floatatom 424 415 5 0 0 0 - - - 0;
#X obj 423 445 s numbahs;
#X obj 69 82 r numbahs;
#X floatatom 75 121 5 0 0 0 - - - 0;
#X obj 86 314 *~;
#X floatatom 135 282 5 0 0 0 - - - 0;
#X obj 76 362 dac~;
#N canvas 388 577 450 300 poly_synth 0;
#X obj 70 20 inlet;
#X obj 76 49 mtof;
#X obj 81 111 phasor~;
#X obj 85 205 *~;
#X obj 172 67 bng 19 250 50 0 empty empty empty 0 -10 0 12 #fcfcfc #000000 #000000;
#X obj 303 59 inlet;
#X obj 225 89 del 350;
#X msg 170 97 1 300;
#X obj 228 120 pack 0 600;
#X obj 228 144 line~;
#X obj 228 168 *~;
#X obj 80 247 outlet~;
#X obj 351 90 loadbang;
#X msg 344 119 2000;
#X connect 0 0 1 0;
#X connect 1 0 2 0;
#X connect 1 0 4 0;
#X connect 2 0 3 0;
#X connect 3 0 11 0;
#X connect 4 0 7 0;
#X connect 4 0 6 0;
#X connect 5 0 8 1;
#X connect 6 0 8 0;
#X connect 7 0 9 0;
#X connect 8 0 9 0;
#X connect 9 0 10 0;
#X connect 9 0 10 1;
#X connect 10 0 3 1;
#X connect 12 0 13 0;
#X connect 13 0 8 1;
#X restore 234 371 pd poly_synth;
#X text 116 123 pitch;
#X msg 66 188 next \$1;
#X obj 55 223 clone polysynth.cl 4;
#X obj 221 277 oscformat -f f x;
#X obj 238 329 netsend -u -b;
#X obj 232 142 mtof;
#X msg 357 286 connect localhost 1337;
#X text 176 281 vol;
#X obj 133 309 clip 0 1;
#X obj 95 462 oscformat -f f wf;
#X obj 88 412 r waveform_sel;
#X obj 312 23 tgl 19 0 empty empty empty 0 -10 0 12 #fcfcfc #000000 #000000 0 1;
#X obj 311 75 melody_seq_real;
#X text 622 189 make a poly instrument;
#X text 621 231 make it a pad \, long delay \, but let the delay be adjustable;
#X text 624 261 do a big sequencer like sim cell;
#X text 623 288 make the notes available in the sequencer changable by a radio;
#X text 624 336 fuckin copy shit idiot lmao;
#X obj 35 283 r~ padST;
#X connect 0 0 1 0;
#X connect 1 0 2 0;
#X connect 2 0 3 0;
#X connect 4 0 5 0;
#X connect 5 0 11 0;
#X connect 5 0 15 0;
#X connect 6 0 8 0;
#X connect 6 0 8 1;
#X connect 7 0 18 0;
#X connect 11 0 12 0;
#X connect 12 0 6 0;
#X connect 13 0 14 0;
#X connect 15 0 13 0;
#X connect 16 0 14 0;
#X connect 18 0 6 1;
#X connect 19 0 14 0;
#X connect 20 0 19 0;
#X connect 21 0 22 0;
#X connect 28 0 6 0;
