#N canvas 38 393 673 569 12;
#X obj 437 339 tgl 19 0 empty empty empty 0 -10 0 12 #fcfcfc #000000 #000000 0 1;
#N canvas 775 491 445 326 the_notes 0;
#X obj 88 37 inlet;
#X obj 77 255 outlet;
#X obj 245 91 table blah_fuckin;
#X obj 84 120 f 0;
#X obj 85 146 + 1;
#X obj 67 216 tabread blah_fuckin;
#X obj 167 71 t b;
#X msg 229 173 \; blah_fuckin 0 58 60 65 64 62 60;
#X obj 84 174 % 6;
#X obj 85 86 metro 100;
#X connect 0 0 6 0;
#X connect 0 0 9 0;
#X connect 3 0 4 0;
#X connect 4 0 8 0;
#X connect 5 0 1 0;
#X connect 6 0 7 0;
#X connect 8 0 3 1;
#X connect 8 0 5 0;
#X connect 9 0 3 0;
#X restore 423 380 pd the_notes;
#X floatatom 424 415 5 0 0 0 - - - 0;
#X obj 423 445 s numbahs;
#X obj 69 82 r numbahs;
#X floatatom 75 121 5 0 0 0 - - - 0;
#X obj 86 314 *~;
#X floatatom 135 293 5 0 0 0 - - - 0;
#X obj 76 362 dac~;
#N canvas 388 577 450 300 poly_synth 0;
#X obj 70 20 inlet;
#X obj 76 49 mtof;
#X obj 81 111 phasor~;
#X obj 85 205 *~;
#X obj 172 67 bng 19 250 50 0 empty empty empty 0 -10 0 12 #fcfcfc #000000 #000000;
#X obj 303 59 inlet;
#X obj 225 89 del 350;
#X msg 170 97 1 300;
#X obj 228 120 pack 0 600;
#X obj 228 144 line~;
#X obj 228 168 *~;
#X obj 80 247 outlet~;
#X obj 351 90 loadbang;
#X msg 344 119 2000;
#X connect 0 0 1 0;
#X connect 1 0 2 0;
#X connect 1 0 4 0;
#X connect 2 0 3 0;
#X connect 3 0 11 0;
#X connect 4 0 7 0;
#X connect 4 0 6 0;
#X connect 5 0 8 1;
#X connect 6 0 8 0;
#X connect 7 0 9 0;
#X connect 8 0 9 0;
#X connect 9 0 10 0;
#X connect 9 0 10 1;
#X connect 10 0 3 1;
#X connect 12 0 13 0;
#X connect 13 0 8 1;
#X restore 234 371 pd poly_synth;
#X text 116 123 pitch;
#X msg 66 188 next \$1;
#X obj 55 223 clone polysynth.cl 4;
#X msg 391 227 \; blah_fuckin 0 58 60 65 64 62 60;
#X obj 417 64 tgl 19 0 empty empty empty 0 -10 0 12 #fcfcfc #000000 #000000 0 1;
#X obj 417 92 metro 1800;
#X obj 418 150 sel 0 1;
#X obj 416 122 random 2;
#X msg 269 176 \; blah_fuckin 0 62 64 65 64 67 60;
#X obj 221 277 oscformat -f f x;
#X obj 238 329 netsend -u -b;
#X obj 232 142 mtof;
#X msg 357 286 connect localhost 1337;
#X text 175 295 vol;
#X connect 0 0 1 0;
#X connect 1 0 2 0;
#X connect 2 0 3 0;
#X connect 4 0 5 0;
#X connect 5 0 11 0;
#X connect 5 0 21 0;
#X connect 6 0 8 0;
#X connect 6 0 8 1;
#X connect 7 0 6 1;
#X connect 11 0 12 0;
#X connect 12 0 6 0;
#X connect 14 0 15 0;
#X connect 15 0 17 0;
#X connect 16 0 18 0;
#X connect 16 1 13 0;
#X connect 17 0 16 0;
#X connect 19 0 20 0;
#X connect 21 0 19 0;
#X connect 22 0 20 0;
