#N canvas 881 355 450 300 12;
#X obj 69 124 mtof;
#X obj 61 168 osc~;
#X obj 68 204 *~;
#X obj 74 258 dac~;
#X floatatom 133 181 5 0 0 0 - - - 0;
#X floatatom 59 82 5 0 0 0 - - - 0;
#N canvas 443 226 450 300 two_note_osc 0;
#X obj 121 82 inlet;
#X obj 116 110 metro 500;
#X obj 125 141 tgl 19 0 empty empty empty 0 -10 0 12 #fcfcfc #000000 #000000 0 1;
#X obj 119 177 sel 0 1;
#X msg 111 207 55;
#X msg 153 208 67;
#X floatatom 174 245 5 0 0 0 - - - 0;
#X obj 189 269 outlet;
#X connect 0 0 1 0;
#X connect 1 0 2 0;
#X connect 2 0 3 0;
#X connect 3 0 4 0;
#X connect 3 1 5 0;
#X connect 4 0 6 0;
#X connect 5 0 6 0;
#X connect 6 0 7 0;
#X restore 241 134 pd two_note_osc;
#X obj 242 105 tgl 19 0 empty empty empty 0 -10 0 12 #fcfcfc #000000 #000000 0 1;
#X floatatom 252 175 5 0 0 0 - - - 0;
#X obj 244 212 s notes;
#X obj 45 49 r notes;
#X connect 0 0 1 0;
#X connect 1 0 2 0;
#X connect 2 0 3 0;
#X connect 2 0 3 1;
#X connect 4 0 2 1;
#X connect 5 0 0 0;
#X connect 6 0 8 0;
#X connect 7 0 6 0;
#X connect 8 0 9 0;
#X connect 10 0 5 0;
