#N canvas 1073 472 514 368 12;
#X obj 64 243 bng 19 250 50 0 empty empty empty 0 -10 0 12 #fcfcfc #000000 #000000;
#X obj 136 271 pack 0 600;
#X obj 64 267 pack 1 5;
#X obj 135 215 + 50;
#X floatatom 185 214 5 0 0 0 - - - 0;
#X obj 133 243 del;
#X obj 62 219 inlet;
#X obj 110 43 loadbang;
#X obj 66 297 line~;
#X obj 66 321 *~;
#X obj 245 50 r attack;
#X obj 332 54 r decay;
#X floatatom 109 115 5 0 0 0 - - - 0;
#X floatatom 168 148 5 0 0 0 - - - 0;
#X obj 66 345 *~;
#X obj 65 371 outlet~;
#X msg 110 67 35;
#X msg 152 67 3000;
#X connect 0 0 2 0;
#X connect 0 0 5 0;
#X connect 1 0 8 0;
#X connect 2 0 8 0;
#X connect 3 0 4 0;
#X connect 3 0 5 1;
#X connect 5 0 1 0;
#X connect 6 0 0 0;
#X connect 7 0 16 0;
#X connect 7 0 17 0;
#X connect 8 0 9 0;
#X connect 8 0 9 1;
#X connect 9 0 14 0;
#X connect 9 0 14 1;
#X connect 10 0 12 0;
#X connect 11 0 13 0;
#X connect 12 0 2 1;
#X connect 12 0 3 0;
#X connect 13 0 1 1;
#X connect 14 0 15 0;
#X connect 16 0 12 0;
#X connect 17 0 13 0;
#X coords 0 -1 1 1 180 80 1 100 100;
